<?xml version="1.0" ?><svg id="Layer_1" style="enable-background:new 0 0 128 128;" version="1.1" viewBox="0 0 128 128" xml:space="preserve" xmlns="http://www.w3.org/2000/svg" xmlns:xlink="http://www.w3.org/1999/xlink"><style type="text/css">
	.st0{fill:#FFFFFF;}
	.st1{fill:#E4E4E7;}
	.st2{fill:none;stroke:#444B54;stroke-width:6;stroke-linecap:round;stroke-linejoin:round;stroke-miterlimit:10;}
	.st3{fill:#AFAFBC;}
	.st4{fill:#EAD063;}
	.st5{fill:#242426;}
	.st6{fill:#F9DED4;}
	.st7{fill:#D8AC9E;}
	.st8{fill:#FFD0FF;}
	.st9{fill:#6575C1;}
	.st10{fill:#786F74;}
	.st11{fill:#9B9BA5;}
	.st12{fill:#FFD2EA;}
	.st13{fill:#B78BA4;}
	.st14{fill:#444B54;}
	.st15{fill:#5D5D8C;}
	.st16{fill:none;stroke:#FFFFFF;stroke-width:6;stroke-linecap:round;stroke-linejoin:round;stroke-miterlimit:10;}
</style><g><path d="M59.6,75.2c2.9-1.8,5.8-1.8,9.2,0.1c0.5,0.3,1,0.4,1.5,0.4c1.1,0,2.1-0.6,2.6-1.5c0.8-1.4,0.3-3.3-1.2-4.1   c-5.3-2.9-10.6-2.9-15.3,0c-1.4,0.9-1.8,2.7-1,4.1C56.3,75.6,58.2,76.1,59.6,75.2z"/><path d="M32.1,42.6c0.3,1.7,1,6.8,1,6.8c0.2,1.6,1.8,2.8,3.4,2.5c1.6-0.2,2.8-1.8,2.5-3.4c0,0-0.8-4.6-1-7.6   c-0.4-6.9,1.3-12.8,4.2-17.2c4.6-7,8.6-6.5,15.2-6.1c2,0.1,4.2,0.3,6.7,0.3c2.3,0,4.4-0.2,6.2-0.3c7.2-0.5,12-1.3,17.4,10.6   c1.9,4.2,2.6,9,2.4,13.5c-0.1,2.1-1,8.3-1,8.3c-0.2,1.6,1,3.1,2.6,3.3c0.1,0,0.2,0,0.4,0c1.5,0,2.8-1.1,3-2.6c0,0,0.7-6.3,1-8.4   c1.7-12.5-0.5-22.9-6.7-30.1C83.5,5.7,74.5,2,64,2c-8.2,0-11.5,0.8-13.1,1.3c-0.1-0.1-0.3-0.2-0.4-0.3c-0.4-0.4-0.9-0.8-1.6-1.3   c-1.3-1.1-3.2-0.9-4.2,0.4c-1.1,1.3-0.9,3.2,0.4,4.2c0.3,0.2,0.5,0.4,0.8,0.6c-0.5,0.3-0.9,0.6-1.4,0.9c-1.3-0.2-3-0.7-5.4-1.6   c-1.5-0.6-3.3,0.2-3.9,1.8c-0.6,1.6,0.2,3.3,1.8,3.9c0.7,0.3,1.3,0.5,2,0.7c-0.6,0.7-1.3,1.4-1.9,2.1C32.9,20,29.4,29,32.1,42.6z"/><path d="M58,48c0-2.2-1.8-4-4-4s-4,1.8-4,4c0,2.2,1.8,1,4,1S58,50.2,58,48z"/><path d="M78,48c0-2.2-1.8-4-4-4s-4,1.8-4,4c0,2.2,1.8,1,4,1S78,50.2,78,48z"/><path d="M10.4,112.5c1.4,0.9,3.3,0.4,4.1-1c1.5-2.5,3.8-4.3,6.6-5.8c-0.1,0.8-0.1,1.5-0.1,2.3c0,1.7,1.3,3,3,3h20v11   c0,1.7,1.3,3,3,3s3-1.3,3-3v-11V89c4.4,1.8,9.3,3,13.9,3c0,0,0,0,0,0c0,0,0,0,0.1,0c0,0,0,0,0,0c4.7,0,9.6-1.2,14-3c0,0,0,0,0,0v22   v11c0,1.7,1.3,3,3,3s3-1.3,3-3v-11h20c1.7,0,3-1.3,3-3c0-0.8,0-1.6-0.1-2.3c5.9,3.1,9.1,7.7,9.1,16.3c0,1.7,1.3,3,3,3s3-1.3,3-3   c0-13.9-7.4-20-16.8-23.7c-2.8-6.8-8.8-11.8-17.6-14.9c0.6-0.5,1.2-1.1,1.8-1.6c1.7-1.8,2.4-5.2,3.2-10.6c0.1-1,0.3-1.9,0.4-2.7   c0.3-1.6-0.8-3.2-2.4-3.5c-1.6-0.3-3.2,0.8-3.5,2.4c-0.1,0.8-0.3,1.8-0.4,2.8c-0.3,2.2-0.9,6.4-1.6,7.4c-0.3,0.3-0.7,0.6-1,0.9   c0,0-0.1,0-0.2,0.2C79.6,82.2,71.5,86,63.9,86c-8.4,0-17.6-4.8-21-8.3c-0.6-1-1.2-5.1-1.6-7.4c-0.1-1-0.3-2-0.4-2.8   c-0.3-1.6-1.8-2.7-3.5-2.4c-1.6,0.3-2.7,1.8-2.4,3.5c0.1,0.8,0.3,1.7,0.4,2.7c0.8,5.4,1.4,8.8,3.2,10.6c0.5,0.5,1.1,1.1,1.8,1.6   c-8.7,3.1-14.7,8.1-17.5,14.9c-5.6,2.1-10.3,5.1-13.4,10C8.6,109.7,9,111.6,10.4,112.5z"/></g></svg>